<mxfile host="app.diagrams.net" modified="2020-08-23T15:26:52.327Z" agent="5.0 (Windows NT 10.0; Win64; x64) AppleWebKit/537.36 (KHTML, like Gecko) Chrome/84.0.4147.125 Safari/537.36" etag="IZdwTkrV58d9OtmYmuFP" version="13.6.4" type="github">
  <diagram id="nRiCKbLWac-Aic7FgBc4" name="Page-1">
    <mxGraphModel dx="1038" dy="499" grid="1" gridSize="10" guides="1" tooltips="1" connect="1" arrows="1" fold="1" page="1" pageScale="1" pageWidth="827" pageHeight="1169" math="0" shadow="0">
      <root>
        <mxCell id="0" />
        <mxCell id="1" parent="0" />
        <mxCell id="QABW8vr0hg3wCwKd0pl3-1" value="" style="outlineConnect=0;dashed=0;verticalLabelPosition=bottom;verticalAlign=top;align=center;html=1;shape=mxgraph.aws3.codepipeline;fillColor=#759C3E;gradientColor=none;" vertex="1" parent="1">
          <mxGeometry x="50" y="80" width="67.5" height="81" as="geometry" />
        </mxCell>
        <mxCell id="QABW8vr0hg3wCwKd0pl3-4" value="" style="rounded=0;whiteSpace=wrap;html=1;gradientColor=#ffffff;fillColor=none;dashed=1;strokeWidth=2;" vertex="1" parent="1">
          <mxGeometry x="70" y="120" width="340" height="190" as="geometry" />
        </mxCell>
        <mxCell id="QABW8vr0hg3wCwKd0pl3-14" style="edgeStyle=orthogonalEdgeStyle;rounded=0;orthogonalLoop=1;jettySize=auto;html=1;entryX=0;entryY=0.5;entryDx=0;entryDy=0;entryPerimeter=0;" edge="1" parent="1" source="QABW8vr0hg3wCwKd0pl3-5" target="QABW8vr0hg3wCwKd0pl3-6">
          <mxGeometry relative="1" as="geometry" />
        </mxCell>
        <mxCell id="QABW8vr0hg3wCwKd0pl3-5" value="" style="dashed=0;outlineConnect=0;html=1;align=center;labelPosition=center;verticalLabelPosition=bottom;verticalAlign=top;shape=mxgraph.webicons.github;gradientColor=#DFDEDE;strokeWidth=2;" vertex="1" parent="1">
          <mxGeometry x="100" y="170" width="70" height="69" as="geometry" />
        </mxCell>
        <mxCell id="QABW8vr0hg3wCwKd0pl3-15" style="edgeStyle=orthogonalEdgeStyle;rounded=0;orthogonalLoop=1;jettySize=auto;html=1;" edge="1" parent="1" source="QABW8vr0hg3wCwKd0pl3-6" target="QABW8vr0hg3wCwKd0pl3-7">
          <mxGeometry relative="1" as="geometry" />
        </mxCell>
        <mxCell id="QABW8vr0hg3wCwKd0pl3-6" value="" style="outlineConnect=0;dashed=0;verticalLabelPosition=bottom;verticalAlign=top;align=center;html=1;shape=mxgraph.aws3.codebuild;fillColor=#759C3E;gradientColor=none;strokeWidth=2;" vertex="1" parent="1">
          <mxGeometry x="205" y="170" width="70" height="70" as="geometry" />
        </mxCell>
        <mxCell id="QABW8vr0hg3wCwKd0pl3-7" value="" style="shape=image;verticalLabelPosition=bottom;labelBackgroundColor=#ffffff;verticalAlign=top;aspect=fixed;imageAspect=0;image=data:image/png,iVBORw0KGgoAAAANSUhEUgAAAsgAAALICAYAAABiqwZ2AAAACXBIWXMAABYlAAAWJQFJUiTwAAAAAXNSR0IArs4c6QAAAARnQU1BAACxjwv8YQUAABnDSURBVHgB7dxLcptXesfhA9LJICNnEpldGVArSLSCUFLGvszbFrUCSyswtQLbKxDl7rld7aklYQf2DoRBKrLkQXveItCASMqHFC+4nO/7zuV5qlAANgD8660fEAIAAAAAAAAAAAAAAAAAAAAAAAAAAAAAAAAAAAAAAAAAAAAAAAAAAAAAAAAAAAAAAAAAAAAAAAAAAAAAAAAAAAAAAAAAAAAAAAAAAAAAAAAAAAAAAAAAAAAAAAAAAAAAAAAAAAAAAAAAAAAAAAAAAAAAAAAAAAAAAAAAAAAAAAAAAAAAAAAAAAAAAAAAAAAAAAAAAAAAAAAAAAAAAAAAAAAAAAAAAAAAAADZGgV698Xtl4ej7Q/+Pnrz5tvD8c4kAACQja3AMGbTB7Ptreef33m5HwAAyIaBPKzdrdHW43t3X734891XnwYAAAZnIOdhdzuE7+/dff14f+/lbgAAYDAGclZm+7PtrRf3/ve3rw1lAIBhGMg50icDAAzGQM7Xuz7ZUAYA6I+BnL+ToaxPBgDog4FcjJM+2VAGAOiUgVyct0NZnwwA0BEDuUz6ZACAjhjIZdMnAwAkZiBXQZ8MAJCKgVwVfTIAwKYM5ProkwEANmAg10ufDACwBgO5evpkAIBVGMjN0CcDACzDQG6LPhkA4BoGcpv0yQAAlzCQm6ZPBgA4z0Am6JMBAP5gIHNKnwwAEAxk3qdPBgCaZiBzCX0yANAmA5lr6JMBgLYYyCxDnwwANMNAZhX6ZACgegYya9AnAwD1MpDZgD4ZAKiPgcym9MkAQFUMZFLRJwMAVTCQSUyfDACUzUCmI/pkAKBMBjJd0icDAMUxkOmDPhkAKIaBTI/0yQBA/gxkBqBPBgDyZSAzFH0yAJAlA5mhnQ7l72UXAEAODGRy8ak+GQDIgYFMZk775F8fBACAARjI5Gh3azT6Wp8MAAzBQCZn+mQAoHcGMiXQJwMAvTGQKYg+GQDonoFMafTJAECnDGRKpU8GADphIFM6fTIAkJSBTCX0yQBAGgYyNdEnAwAbM5CpkT4ZAFibgUzN9MkAwMoMZBqgTwYAlmcg0wp9MgCwFAOZ1uiTAYArGci0Sp8MAFzIQKZx+mQA4CwDGfTJAEDEQIY/6JMBAAMZLqBPBoCGGchwKX0yALTIQIar6ZMBoDEGMixHnwwAjTCQYTX6ZAConIEMa9EnA0CtDGRYnz4ZACpkIMPm9MkAUBEDGdLRJwNABQxkSE6fDAAlM5ChG/pkACiUgQzd0icDQGEMZOiHPhkACmEgQ6+O++Qv7vz2VQAAsmQgQ/92R6PpgT4ZAPJkIMNwTvrk189lFwCQDwMZBjfb0ycDQD4MZMiGPhkAcmAgQ170yQAwMAMZ8qRPBoCBGMiQNX0yAPTNQIYi6JMBoC8GMpRDnwwAPTCQoTz6ZADokIEMxdInA0AXDGQonj4ZAFIykKEO+mQASMRAhrrokwFgQwYyVEmfDADrMpChavpkAFiVgQz10ycDwAoMZGiHPhkAlmAgQ3P0yQBwFQMZmnXcJwcA4AwDGdq2GwCAMwxkAACIGMgAABAxkAEAIGIgAwBAxEAGAICIgQwAABEDGQAAIgYyAABEDGQAAIgYyEAS9+6+fry/93I3AJDU3t6PX+7tff9poDcGMpDIbH+2vfX88zsv9wMAG5uP4r29vb89n3++fhPC9oeB3nwQANLZ3RptPb5399VX09n00V+e7RwGAFYyH8a780H8ePEyMAgDGejCyVB+/T+jo6NHh+OdSQDgSvNhPL8Sf/Dl/GL8YP7WxXhAEgugQ2+zixf6ZICrLTrj+dX4xfxz8yAYx4MzkIEe6JMBLnK2MzaMcyGxAPqiTwY4oTPOm4EM9E2fDDRLZ1wGiQUwEH0y0BadcTkMZGBg+mSgbjrj8kgsgBzok4Hq6IzLZSADOdEnA8XTGZdPYgFkSJ8MlElnXAcDGciYPhkog864LhILIHf6ZCBbOuM6GchAKfTJQDZ0xnWTWACF0ScDw9IZ189ABgqlTwb6pTNuh8QCKJk+Geiczrg9BjJQA30ykJzOuF0SC6Ai+mQgDZ1x2wxkoEL6ZGA9OmMWJBZArfTJwNJ0xsQMZKB2+mTgUjpjLiKxABqhTwbO0hlzGQMZaMxpn/zrgwA0SWfMdSQWQIt2t0ajr+/dffWlPhnaoTNmWQYy0LLTH/J9MjqaPtQnQ510xqxKYgEQwqf6ZKiTzph1GMgA7+iToRY6YzYhsQA4S58MBdMZk4KBDHAxfTIURGdMShILgKvpkyFzOmNSM5ABlqJPhtzojOmKxAJgefpkyIDOmK4ZyACr0yfDAHTG9EViAbA+fTL0RGdMnwxkgI3pk6Erx53xjz/rjOmTxAIgDX0yJHS2M54F6JOBDJCWPhk2EHXGBwEGIrEA6IY+GVZ0rjOGwRjIAJ3SJ8N1dMbkRmIB0D19MlxAZ0yuDGSA/uiTIeiMyZ/EAqB/+mSapTOmBAYywGD0ybRDZ0xJJBYAw9InUzWdMSUykAHyoE+mKjpjSiaxAMiLPpni6YwpnYEMkCV9MuXRGVMLiQVAvvTJFEFnTG0MZID86ZPJks6YWkksAMqhTyYbOmNqZiADFEefzHB0xrRAYgFQJn0yvdIZ0xIDGaBs+mQ6pTOmRRILgDrok0lOZ0yrDGSAquiT2ZzOmNZJLADqo09mLTpjOGYgA9RLn8xSdMZwlsQCoH76ZC6lM4b3GcgAzdAn8wedMVxOYgHQFn1y43TGcD0DGaBN+uTG6IxheRILgLbpkxugM4bVGMgAhNM++Ys7v30VqIbOGNYjsQDg1O5oND24d/fVvj65bDpj2IyBDMB5J33y63ujo6P7+uRy6IwhDYkFAJeY7emTy6EzhnQMZACuoU/Omc4Y0pNYALAMfXJmdMbQHQMZgFXokwemM4buSSwAWIM+eQg6Y+iHgQzABvTJfdAZQ78kFgBsSp/cEZ0xDMNABiAVfXIiOmMYlsQCgMT0yZvQGcPwDGQAOqJPXsVxZ/y3FzpjGJ7EAoAu6ZOvcbYzBnJgIAPQB33yOced8fbiuv4gAFmRWADQI33ywh+dsXEMOTKQARhAm32yzhjKILEAYCjN9Mk6YyiLC/IAvnu+sz+aTe+HWZgEAE775Oe1ZReLznh+Mf76JKfYC0ARDOSBHM4vJaPp9PYszL4NAITa+mSdMZTLQB7Q4lfc3z396MHoaHpzFqZPAgCh9D5ZZwzlM5AzcDyUd/ZHIXwmuwB467RPfvH5nZf7oQCLzng+jJ/Pr8bzR9gNQLEM5IwcPr3xw5NnN27qkwHeyb5P1hlDfQzkDOmTAc7Ls0/WGUOdDORM6ZMBLpJHn6wzhroZyJnTJwO8Z7A+WWcMbTCQC6FPBnhPb32yzhjaYiAXRp8McF63fbLOGNpjIBdInwxwkeM++fM7vyYZsic5hc4YGmQgF0yfDPCe3a0w+q+Qxl7QGUOTDOQK6JMBANIxkCuiTwYA2JyBXBl9MgDAZgzkSumTAQDWYyBXTp8MALAaA7kR+mQAgOUYyA3RJwMAXM9AbtC7Pnk0vS27AAA4y0Bu2OFPO2N9MgDAWQYy7/rk+UX5UQAAaJyBzFuL7GJ+UT7QJwMArTOQOUOfDAC0zkDmQvpkAKBVBjJX0icDAK0xkLmWPhkAaImBzNL0yQBACwxkVqZPBgBqZiCzNn0yAFAjA5mN6JMBgNoYyCShTwYAamEgk5Q+GQAonYFMJ/TJAECpDGQ6o08GAEpkINM5fTIAUBIDmd7okwGAEhjI9E6fDADkzEBmEPpkACBXBjKD0icDALkxkMmCPhkAyIWBTFb0yQDA0AxksqNPBgCGZCCTLX0yADAEA5ns6ZMBgD4ZyBRDnwwA9MFApij6ZACgawYyRdInAwBdMZApmj4ZAEjNQKYK+mQAIBUDmWrokwGAFAxkqqNPBgA2YSBTLX0yALAOA5nq6ZMBgFUYyDRBnwwALMtApin6ZADgOgYyTdInAwCXMZBpmj4ZADjPQKZ5+mQAIGYgwwl9MgCwYCDDOfpkAGibgQyX0CcDQJsMZLiCPhkA2mMgwxL0yQDQDgMZVqBPBoD6GciwBn0yANTLQIY16ZMBoE4GMmxInwwAdTGQIRF9MgDUwUCGxPTJAFA2Axk6oE8GgHIZyNAhfTIAlMdAhh7okwGgHAYy9EifDAD5M5ChZ/pkAMibgQwD0ScDQJ4MZBiYPhkA8mIgQyaO++R/vaVPBoBhGciQkcPxv/+uTwaAYRnIkKF3ffLRP27JLgCgXwYyZOxw/J+/6JMBoF8GMhRAnwwA/TGQoRD6ZADoh4EMhdEnA0C3DGQolD4ZALphIEPh9MkAkJaBDBXQJwNAOgYyVESfDACbM5ChQvpkAFifgQwV0ycDwOoMZKicPhkAVmMgQyP0yQCwHAMZGqNPBoCrGcjQqNM+OQAAZxjI0LBFnxwAgDMMZAAAiBjIAAAQMZABACBiIAMAQMRABgCAiIEMAAARAxkAACIGMgAARAxkAACIGMhAEqPZ0cMwC5MAQGqHIRz9EOiNgQwkcfjsT9+MptPbszB9EgBIYTwfxrfH44/vj8ef/R7ozQcBIJHD8c5k/rS/v/fyYLodDkZh614AYFWT+TB+OB/FrsYDcUEGklsM5e+e7uyPZtP7sguApc2vxLNH83F8yzgelgsy0JnDZzuHi6f9Oy/3Z2HrqzAKuwGAixyeXI2lFBlwQQY6txjK+mSAC411xvlxQQZ6oU8GOGOiM86XCzLQK30y0DidcQFckIFB6JOBBh3qjMvgggwMSp8MNGCsMy6LCzIwOH0yUKnJfBgvRvE4UBQXZCAb+mSgEnFnPA4UxwUZyI4+GSjX7NsQpgdSirK5IAPZ0icDBRkfd8afPDCOy+eCDGRNnwxkbqIzro8LMlAEfTKQGZ1xxVyQgaLok4Hh6Yxr54IMFEmfDAxgrDNugwsyUCx9MtCTic64LS7IQPH0yUBHdMaNMpCBJOZX3N0wsEV28eTZjZuGMrC5RWd8dHM8/kRr3CADGUhitr314os7v30VMqBPBjYw1hljIAPJjEbTg3t3X734/M7L/TCwd9nF0fSmoQwsYXI8jD++LafAQAZS290abT1eDOX9vf/77zAwfTJwDZ0x7zGQga7szrb/5ed7d18/1icDedIZczEDGejYbP+0T97fe/FhGJg+GQg6Y65hIAO9WPTJs+1/+1mfDAxoojNmGQYy0Cd9MjAEnTErMZCBIeiTgZ7ojFmdgQwMSJ8MdGasM2ZdBjIwOH0ykNBEZ8ymDGQgF/pkYBM6Y5IxkIHc6JOBFemMSctABjKVa5+8+CIGMjE+vhjrjEnLQAayll+f/NEDfTIMbhJ1xr8ESMxABkqQZ58cwmeyC+jV2854Poxv6ozpkoEMlCSvPvnpjR/0ydCXPzrjAB0zkIEC6ZOhIWOdMX0zkIFi6ZOhahOdMUMxkIHS6ZOhLjpjBmcgA7XQJ0PxdMbkwUAGKqNPhgKNdcbkxEAGqqRPhiJMdMbkyEAGaqZPhjzpjMmagQy0QJ8M2dAZkz8DGWiIPhkGNNYZUwoDGWiOPhl6NdEZUxoDGWiVPhm6pTOmWAYy0Dp9MiSnM6ZsBjLAW/pkSGCsM6YGBjJARJ8Ma5nojKmJgQzwPn0yLEdnTJUMZIDL6ZPhUjpj6mUgA1xLnwyRsc6Y2hnIAEvSJ9O4ic6YVhjIAKvRJ9ManTHNMZAB1qNPpgE6Y9pkIANsRJ9MlcYnw1hnTJMMZIAE9MlUYhJ1xpMAjTKQAdLRJ1OqxZX4oc4YjhnIAOnpkynIaWf88TcBeMtABuhM3CdnMJT1yZw11hnDxQxkgI4d98lbz/XJZGKiM4arGcgA/XjXJ/957+VeGNi7Pnk0vS27aIbOGJZkIAP0a3d7fk3Opk/+aWesT26BzhhWYSADDCLPPnl+UX4UqMlYZwyrM5ABBpRbnzy/KB/ok6sw0RnD+gxkgOHpk0lFZwwJGMgA+dAnswGdMaRiIANkR5/MSsY6Y0jLQAbIlD6Za0x0xtANAxkgb/pkztMZQ8cMZIAy6JMJOmPoh4EMUBR9cqPGOmPoj4EMUCB9cjMmOmPon4EMUC59cr10xjAgAxmgfPrkquiMYWgGMkA19MmFG+uMIQ8GMkBl9MnFmeiMIS8GMkCd9Mn50xlDpgxkgLrpk7M0e6QzhnwZyABN0CdnYnzSGR/ojCFfBjJAQ/TJQ5n9ojOGchjIAO3RJ/fnpDP+5JbOGMphIAO0S5/cKZ0xlMpABmiePjmxsc4YymYgA/CWPnlTOmOohYEMQEyfvDqdMVTGQAbgIvrkpeiMoUYGMgBX0CdfYqwzhnoZyABcS598SmcMLTCQAVhWy32yzhgaYiADsKrG+mSdMbRmFAASmF8VZ4EmzWZbB1vTN08WF90wsP29v38Ywj92D8f/8UvY0N7ej3shvJlIKaA9BjKQhIHcvMl0Nn30l2c7hwGgcAYykISBzInJ0dH0/l/HO+MAUCgNMgApZdUnA6zDBRlIwgWZi+TUJwMsywUZgM7k9P/JAMtyQQaScEFmCZOjEB7+9emNHwJAxlyQAejL7nYI3+uTgdy5IANJuCCzstHWN6M3b77VJwO5cUEGYBiz6QN9MpAjF2QgCRdkNqRPBrLhggxADvTJQDZckIEkXJBJSp8MDMgFGYD86JOBAbkgA0m4INMhfTLQKxdkAHKnTwZ65YIMJOGCTG/0yUDHXJABKIs+GeiYCzKQhAsyA9EnA8m5IANQMn0ykJwLMpCECzJZ0CcDCXwQAKAWiz55a+vD+av7AWBNEgsAAIgYyAAAEDGQAQAgYiADAEDEQAYAgIiBDAAAEQMZAAAiBjIAAEQMZAAAiBjIAAAQMZABACBiIAMAQMRABgCAiIEMAAARAxkAACIGMgAARAxkAACIGMgAABAxkAEAIGIgAwBAxEAGAICIgQwAABEDGQAAIgYyAABEDGQAAIgYyAAAEDGQAQAgYiADAEDEQAYAgIiBDAAAEQMZAAAiBjIAAEQMZAAAiBjIAAAQMZABACBiIAMAQMRABgCAiIEMAAARAxkAACIGMgAARAxkAACIGMgAABAxkAEAIGIgAwBAxEAGAICIgQwAABEDGQAAIgYyAABEDGQAAIgYyAAAEDGQAQAgYiADAEDEQAYAgIiBDAAAEQMZAAAiBjIAAEQMZAAAiBjIAAAQMZABACBiIAMAQMRABgCAiIEMAAARAxkAACIGMgAARAxkAACIGMgAABAxkAEAIGIgAwBAxEAGAICIgQwAABEDGQAAIgYyAABEDGQAAIgYyAAAEDGQAQAgYiADAEDEQAYAgIiBDAAAEQMZAAAiBjIAAEQMZAAAiBjIAAAQMZABACBiIAMAQMRABgCAiIEMAAARAxkAACIGMgAARAxkAACIGMgAABAxkAEAIGIgAwBAxEAG0piFSQCAChjIQBJPnt24ORpNH4XZ6PcAAAUzkIFkDn/aORhNj27NwvRJAIBCGchAUofjncl3T3f2R0fTm/O3vwQAKIyBDHRiMZSfPL1xazSb3tcnA1ASAxno1OGznUN9MgAlMZCBXuiTASiFgQz0Rp8MQAkMZKB3+mQAcmYgA4PRJwOQIwMZGJw+GYCcGMhAFvTJAOTCQAayok8GYGgGMpAlfTIAQzGQgazpkwHom4EMZE+fDECfDGSgGPpkAPpgIAPF0ScD0CUDGSiWPhmALhjIQNH0yQCkZiADVdAnA5CKgQxURZ8MwKYMZKBK+mQA1mUgA9XSJwOwDgMZqJ4+GYBVGMhAM/TJACzDQAaao08G4CoGMtCks33ybBwA4ISBDDTtuE/+6LY+GYBTBjJAON8nG8oALTOQASLHffL0tj4ZoF0GMsA5+mSAthnIAJfQJwO0yUAGuIY+GaAtBjLAkvTJAG0wkAFWoE8GqJ+BDLAGfTJAvQxkgA3okwHqYyADJKBPBqiHgQyQiD4ZoA4GMkBi+mSAshnIAB3RJwOUyUAG6Jg+GaAsBjJAD/TJAOUwkAF6pE8GyJ+BDDAAfTJAvgxkgAHpkwHyYyADDEyfDJAXAxkgE/pkgDwYyACZ0ScDDMtABsiUPhlgGAYyQMb0yQD9M5ABCqBPBuiPgQxQEH0yQPcMZIAC6ZMBumMgAxRKnwzQDQMZoHD6ZIC0DGSASuiTAdIwkAEqo08G2IyBDFAhfTLA+gxkgIrpkwFWZyADNECfDLA8AxmgIfpkgOsZyACN0ScDXM1ABmiUPhngYgYyQOP0yQBnGcgAvKVPBjhmIAPwjj4ZwEAG4AL6ZKBlBjIAl9InAy0ykAG4lj4ZaImBDMBS9MlAKwxkAFaiTwZqZyADsBZ9MlArAxmAjeiTgdoYyABsTJ8M1MRABiAZfTJQAwMZgOT0yUDJDGQAOqNPBkpkIAPQKX0yUBoDGYBe6JOBUhjIAPRKnwzkzkAGYBD6ZCBXBjIAg9EnAzkykAEYnD4ZyImBDEA29MlADgxkALKjTwaGZCADkCV9MjAUAxmArOmTgb4ZyAAU4V2fPDt6aCgDXTKQASjK4bM/faNPBrpkIANQnHN98g8BICEDGYBinfTJn+mTAQDgAvt3/v/B/p2XBwEAAAAAAAAAAAAAAAAAAAAAAAAAAAAAAAAAAAAAAAAAAAAAAAAAAAAAAAAAAAAAAAAAAAAAAAAAAAAAAAAAAAAAAAAAAAAAAAAAAAAAAAAAAAAAAAAAAAAAAAAAAAAAAAAAAAAAAAAAAAAAAAAAAAAAAAAAAAAAAAAAAAAAAAAAAAAAAAAAAAAAAAAAAAAAAAAAAAAAAAAAAAAAAAAAAAAAAAAAKN0/AW/ZhvqdWtLsAAAAAElFTkSuQmCC;" vertex="1" parent="1">
          <mxGeometry x="310" y="164" width="82" height="82" as="geometry" />
        </mxCell>
        <mxCell id="QABW8vr0hg3wCwKd0pl3-8" value="" style="endArrow=classic;html=1;" edge="1" parent="1">
          <mxGeometry width="50" height="50" relative="1" as="geometry">
            <mxPoint x="414" y="214" as="sourcePoint" />
            <mxPoint x="490" y="214" as="targetPoint" />
          </mxGeometry>
        </mxCell>
        <mxCell id="QABW8vr0hg3wCwKd0pl3-9" value="" style="outlineConnect=0;fontColor=#232F3E;gradientColor=none;fillColor=#277116;strokeColor=none;dashed=0;verticalLabelPosition=bottom;verticalAlign=top;align=center;html=1;fontSize=12;fontStyle=0;aspect=fixed;pointerEvents=1;shape=mxgraph.aws4.bucket;" vertex="1" parent="1">
          <mxGeometry x="500" y="176" width="75" height="78" as="geometry" />
        </mxCell>
        <mxCell id="QABW8vr0hg3wCwKd0pl3-13" style="edgeStyle=orthogonalEdgeStyle;rounded=0;orthogonalLoop=1;jettySize=auto;html=1;" edge="1" parent="1" source="QABW8vr0hg3wCwKd0pl3-10" target="QABW8vr0hg3wCwKd0pl3-5">
          <mxGeometry relative="1" as="geometry" />
        </mxCell>
        <mxCell id="QABW8vr0hg3wCwKd0pl3-10" value="" style="aspect=fixed;pointerEvents=1;shadow=0;dashed=0;html=1;strokeColor=none;labelPosition=center;verticalLabelPosition=bottom;verticalAlign=top;align=center;fillColor=#00188D;shape=mxgraph.azure.user" vertex="1" parent="1">
          <mxGeometry x="112" y="390" width="47" height="50" as="geometry" />
        </mxCell>
        <mxCell id="QABW8vr0hg3wCwKd0pl3-11" value="USER" style="text;html=1;strokeColor=none;fillColor=none;align=center;verticalAlign=middle;whiteSpace=wrap;rounded=0;dashed=1;" vertex="1" parent="1">
          <mxGeometry x="190" y="405" width="40" height="20" as="geometry" />
        </mxCell>
        <mxCell id="QABW8vr0hg3wCwKd0pl3-16" value="Terraform" style="text;html=1;strokeColor=none;fillColor=none;align=center;verticalAlign=middle;whiteSpace=wrap;rounded=0;dashed=1;" vertex="1" parent="1">
          <mxGeometry x="330" y="144" width="40" height="20" as="geometry" />
        </mxCell>
        <mxCell id="QABW8vr0hg3wCwKd0pl3-17" value="Code Deploy" style="text;html=1;strokeColor=none;fillColor=none;align=center;verticalAlign=middle;whiteSpace=wrap;rounded=0;dashed=1;" vertex="1" parent="1">
          <mxGeometry x="210" y="144" width="40" height="20" as="geometry" />
        </mxCell>
        <mxCell id="QABW8vr0hg3wCwKd0pl3-18" value="GitHub" style="text;html=1;strokeColor=none;fillColor=none;align=center;verticalAlign=middle;whiteSpace=wrap;rounded=0;dashed=1;" vertex="1" parent="1">
          <mxGeometry x="112" y="150" width="40" height="20" as="geometry" />
        </mxCell>
        <mxCell id="QABW8vr0hg3wCwKd0pl3-19" value="Code Pipeline" style="text;html=1;strokeColor=none;fillColor=none;align=center;verticalAlign=middle;whiteSpace=wrap;rounded=0;dashed=1;" vertex="1" parent="1">
          <mxGeometry x="130" y="90" width="40" height="20" as="geometry" />
        </mxCell>
        <mxCell id="QABW8vr0hg3wCwKd0pl3-20" value="S3 bucket" style="text;html=1;strokeColor=none;fillColor=none;align=center;verticalAlign=middle;whiteSpace=wrap;rounded=0;dashed=1;" vertex="1" parent="1">
          <mxGeometry x="610" y="205" width="40" height="20" as="geometry" />
        </mxCell>
      </root>
    </mxGraphModel>
  </diagram>
</mxfile>
